<mxfile host="Electron" modified="2023-12-09T22:35:23.538Z" agent="Mozilla/5.0 (Windows NT 10.0; Win64; x64) AppleWebKit/537.36 (KHTML, like Gecko) draw.io/22.1.2 Chrome/114.0.5735.289 Electron/25.9.4 Safari/537.36" etag="Q6mpkBc_cDm0SANWsXFS" version="22.1.2" type="device">
  <diagram name="Page-1" id="DscfCKIADO5bJP5ARTRz">
    <mxGraphModel dx="712" dy="868" grid="1" gridSize="10" guides="1" tooltips="1" connect="1" arrows="1" fold="1" page="1" pageScale="1" pageWidth="850" pageHeight="1100" math="0" shadow="0">
      <root>
        <mxCell id="0" />
        <mxCell id="1" parent="0" />
        <mxCell id="XKNB-wbBpSWoFpQIkqXU-4" style="edgeStyle=orthogonalEdgeStyle;rounded=0;orthogonalLoop=1;jettySize=auto;html=1;entryX=0.5;entryY=0;entryDx=0;entryDy=0;" parent="1" source="XKNB-wbBpSWoFpQIkqXU-1" target="XKNB-wbBpSWoFpQIkqXU-3" edge="1">
          <mxGeometry relative="1" as="geometry" />
        </mxCell>
        <mxCell id="XKNB-wbBpSWoFpQIkqXU-1" value="TURTLE&lt;br&gt;STARTS" style="rounded=0;whiteSpace=wrap;html=1;fillColor=#223815;" parent="1" vertex="1">
          <mxGeometry x="180" y="50" width="120" height="60" as="geometry" />
        </mxCell>
        <mxCell id="XKNB-wbBpSWoFpQIkqXU-6" style="edgeStyle=orthogonalEdgeStyle;rounded=0;orthogonalLoop=1;jettySize=auto;html=1;entryX=0;entryY=0.5;entryDx=0;entryDy=0;" parent="1" source="XKNB-wbBpSWoFpQIkqXU-3" target="XKNB-wbBpSWoFpQIkqXU-5" edge="1">
          <mxGeometry relative="1" as="geometry" />
        </mxCell>
        <mxCell id="XKNB-wbBpSWoFpQIkqXU-11" style="edgeStyle=orthogonalEdgeStyle;rounded=0;orthogonalLoop=1;jettySize=auto;html=1;entryX=0.5;entryY=0;entryDx=0;entryDy=0;" parent="1" source="XKNB-wbBpSWoFpQIkqXU-3" target="XKNB-wbBpSWoFpQIkqXU-10" edge="1">
          <mxGeometry relative="1" as="geometry" />
        </mxCell>
        <mxCell id="XKNB-wbBpSWoFpQIkqXU-3" value="HAS&lt;br style=&quot;font-size: 9px;&quot;&gt;INITIALIZED?" style="rhombus;whiteSpace=wrap;html=1;fontSize=9;fillColor=#1C1D0A;" parent="1" vertex="1">
          <mxGeometry x="190" y="150" width="100" height="100" as="geometry" />
        </mxCell>
        <mxCell id="XKNB-wbBpSWoFpQIkqXU-9" style="edgeStyle=orthogonalEdgeStyle;rounded=0;orthogonalLoop=1;jettySize=auto;html=1;entryX=0.5;entryY=1;entryDx=0;entryDy=0;" parent="1" source="XKNB-wbBpSWoFpQIkqXU-5" target="XKNB-wbBpSWoFpQIkqXU-3" edge="1">
          <mxGeometry relative="1" as="geometry">
            <mxPoint x="250" y="280" as="targetPoint" />
            <Array as="points">
              <mxPoint x="440" y="250" />
            </Array>
          </mxGeometry>
        </mxCell>
        <mxCell id="XKNB-wbBpSWoFpQIkqXU-5" value="ASK PYTHON FOR NEW TURTLE&lt;br&gt;UNIQUE ID" style="rounded=0;whiteSpace=wrap;html=1;fillColor=#22335C;fontStyle=0" parent="1" vertex="1">
          <mxGeometry x="380" y="170" width="120" height="60" as="geometry" />
        </mxCell>
        <mxCell id="XKNB-wbBpSWoFpQIkqXU-7" value="NO" style="text;html=1;strokeColor=none;fillColor=none;align=center;verticalAlign=middle;whiteSpace=wrap;rounded=0;" parent="1" vertex="1">
          <mxGeometry x="289" y="177" width="60" height="30" as="geometry" />
        </mxCell>
        <mxCell id="XKNB-wbBpSWoFpQIkqXU-49" style="edgeStyle=orthogonalEdgeStyle;rounded=0;orthogonalLoop=1;jettySize=auto;html=1;entryX=0;entryY=0.5;entryDx=0;entryDy=0;" parent="1" source="XKNB-wbBpSWoFpQIkqXU-10" target="XKNB-wbBpSWoFpQIkqXU-15" edge="1">
          <mxGeometry relative="1" as="geometry" />
        </mxCell>
        <mxCell id="XKNB-wbBpSWoFpQIkqXU-10" value="HAS&lt;br&gt;ACTIVE JOB&lt;br&gt;STATE?" style="rhombus;whiteSpace=wrap;html=1;fontSize=9;fillColor=#1C1D0A;" parent="1" vertex="1">
          <mxGeometry x="190" y="280" width="100" height="100" as="geometry" />
        </mxCell>
        <mxCell id="XKNB-wbBpSWoFpQIkqXU-13" value="YES" style="text;html=1;strokeColor=none;fillColor=none;align=center;verticalAlign=middle;whiteSpace=wrap;rounded=0;" parent="1" vertex="1">
          <mxGeometry x="202" y="248" width="40" height="30" as="geometry" />
        </mxCell>
        <mxCell id="XKNB-wbBpSWoFpQIkqXU-46" style="edgeStyle=orthogonalEdgeStyle;rounded=0;orthogonalLoop=1;jettySize=auto;html=1;entryX=0.5;entryY=0;entryDx=0;entryDy=0;" parent="1" source="XKNB-wbBpSWoFpQIkqXU-15" target="XKNB-wbBpSWoFpQIkqXU-31" edge="1">
          <mxGeometry relative="1" as="geometry" />
        </mxCell>
        <mxCell id="XKNB-wbBpSWoFpQIkqXU-15" value="ASK PYTHON FOR&lt;br&gt;NEXT JOB" style="rounded=0;whiteSpace=wrap;html=1;fillColor=#22335C;fontStyle=0" parent="1" vertex="1">
          <mxGeometry x="425" y="300" width="120" height="60" as="geometry" />
        </mxCell>
        <mxCell id="XKNB-wbBpSWoFpQIkqXU-27" style="edgeStyle=orthogonalEdgeStyle;rounded=0;orthogonalLoop=1;jettySize=auto;html=1;entryX=0.5;entryY=0;entryDx=0;entryDy=0;" parent="1" source="XKNB-wbBpSWoFpQIkqXU-18" target="XKNB-wbBpSWoFpQIkqXU-26" edge="1">
          <mxGeometry relative="1" as="geometry" />
        </mxCell>
        <mxCell id="XKNB-wbBpSWoFpQIkqXU-18" value="PARSE&lt;br&gt;JOB" style="rounded=0;whiteSpace=wrap;html=1;fillColor=#385C22;fontStyle=0" parent="1" vertex="1">
          <mxGeometry x="180" y="455" width="120" height="60" as="geometry" />
        </mxCell>
        <mxCell id="XKNB-wbBpSWoFpQIkqXU-52" style="edgeStyle=orthogonalEdgeStyle;rounded=0;orthogonalLoop=1;jettySize=auto;html=1;entryX=0.5;entryY=1;entryDx=0;entryDy=0;exitX=0;exitY=0.5;exitDx=0;exitDy=0;" parent="1" source="XKNB-wbBpSWoFpQIkqXU-20" target="XKNB-wbBpSWoFpQIkqXU-10" edge="1">
          <mxGeometry relative="1" as="geometry">
            <Array as="points">
              <mxPoint x="410" y="530" />
              <mxPoint x="410" y="380" />
            </Array>
          </mxGeometry>
        </mxCell>
        <mxCell id="XKNB-wbBpSWoFpQIkqXU-20" value="STORE&lt;br&gt;JOB&lt;br&gt;STATE" style="rounded=0;whiteSpace=wrap;html=1;fillColor=#385C22;fontStyle=0" parent="1" vertex="1">
          <mxGeometry x="425" y="500" width="120" height="60" as="geometry" />
        </mxCell>
        <mxCell id="XKNB-wbBpSWoFpQIkqXU-22" value="NO" style="text;html=1;strokeColor=none;fillColor=none;align=center;verticalAlign=middle;whiteSpace=wrap;rounded=0;" parent="1" vertex="1">
          <mxGeometry x="288" y="304" width="40" height="30" as="geometry" />
        </mxCell>
        <mxCell id="XKNB-wbBpSWoFpQIkqXU-43" style="edgeStyle=orthogonalEdgeStyle;rounded=0;orthogonalLoop=1;jettySize=auto;html=1;entryX=1.009;entryY=0.63;entryDx=0;entryDy=0;entryPerimeter=0;exitX=0.003;exitY=0.685;exitDx=0;exitDy=0;exitPerimeter=0;" parent="1" source="XKNB-wbBpSWoFpQIkqXU-25" target="XKNB-wbBpSWoFpQIkqXU-26" edge="1">
          <mxGeometry relative="1" as="geometry">
            <mxPoint x="380" y="621" as="sourcePoint" />
            <mxPoint x="299.9999999999999" y="621" as="targetPoint" />
            <Array as="points">
              <mxPoint x="360" y="621" />
            </Array>
          </mxGeometry>
        </mxCell>
        <mxCell id="XKNB-wbBpSWoFpQIkqXU-25" value="SAVE&lt;br&gt;JOB&lt;br&gt;RESULT" style="rounded=0;whiteSpace=wrap;html=1;fillColor=#22335C;fontStyle=0" parent="1" vertex="1">
          <mxGeometry x="329" y="580" width="120" height="60" as="geometry" />
        </mxCell>
        <mxCell id="XKNB-wbBpSWoFpQIkqXU-42" style="edgeStyle=orthogonalEdgeStyle;rounded=0;orthogonalLoop=1;jettySize=auto;html=1;exitX=0.992;exitY=0.389;exitDx=0;exitDy=0;exitPerimeter=0;entryX=0.009;entryY=0.363;entryDx=0;entryDy=0;entryPerimeter=0;" parent="1" source="XKNB-wbBpSWoFpQIkqXU-26" target="XKNB-wbBpSWoFpQIkqXU-25" edge="1">
          <mxGeometry relative="1" as="geometry">
            <mxPoint x="299.9999999999999" y="601" as="sourcePoint" />
            <mxPoint x="380" y="601" as="targetPoint" />
          </mxGeometry>
        </mxCell>
        <mxCell id="XKNB-wbBpSWoFpQIkqXU-44" style="edgeStyle=orthogonalEdgeStyle;rounded=0;orthogonalLoop=1;jettySize=auto;html=1;entryX=0.5;entryY=0;entryDx=0;entryDy=0;" parent="1" source="XKNB-wbBpSWoFpQIkqXU-26" target="XKNB-wbBpSWoFpQIkqXU-41" edge="1">
          <mxGeometry relative="1" as="geometry" />
        </mxCell>
        <mxCell id="XKNB-wbBpSWoFpQIkqXU-26" value="SEND&lt;br&gt;RESULT&lt;br&gt;TO&lt;br&gt;PYTHON" style="rounded=0;whiteSpace=wrap;html=1;fillColor=#385C22;fontStyle=0" parent="1" vertex="1">
          <mxGeometry x="180" y="570" width="120" height="80" as="geometry" />
        </mxCell>
        <mxCell id="XKNB-wbBpSWoFpQIkqXU-48" style="edgeStyle=orthogonalEdgeStyle;rounded=0;orthogonalLoop=1;jettySize=auto;html=1;entryX=0.5;entryY=0;entryDx=0;entryDy=0;" parent="1" source="XKNB-wbBpSWoFpQIkqXU-31" target="XKNB-wbBpSWoFpQIkqXU-20" edge="1">
          <mxGeometry relative="1" as="geometry" />
        </mxCell>
        <mxCell id="XKNB-wbBpSWoFpQIkqXU-55" style="edgeStyle=orthogonalEdgeStyle;rounded=0;orthogonalLoop=1;jettySize=auto;html=1;entryX=0.5;entryY=1;entryDx=0;entryDy=0;exitX=1;exitY=0.5;exitDx=0;exitDy=0;" parent="1" source="XKNB-wbBpSWoFpQIkqXU-31" target="XKNB-wbBpSWoFpQIkqXU-35" edge="1">
          <mxGeometry relative="1" as="geometry">
            <Array as="points">
              <mxPoint x="590" y="430" />
            </Array>
          </mxGeometry>
        </mxCell>
        <mxCell id="XKNB-wbBpSWoFpQIkqXU-31" value="IS&lt;br&gt;JOB&lt;br&gt;AVAILABLE?" style="rhombus;whiteSpace=wrap;html=1;fontSize=9;fillColor=#1C1D0A;" parent="1" vertex="1">
          <mxGeometry x="435" y="380" width="100" height="100" as="geometry" />
        </mxCell>
        <mxCell id="XKNB-wbBpSWoFpQIkqXU-54" style="edgeStyle=orthogonalEdgeStyle;rounded=0;orthogonalLoop=1;jettySize=auto;html=1;entryX=0.5;entryY=0;entryDx=0;entryDy=0;exitX=0.5;exitY=0;exitDx=0;exitDy=0;" parent="1" source="XKNB-wbBpSWoFpQIkqXU-35" target="XKNB-wbBpSWoFpQIkqXU-10" edge="1">
          <mxGeometry relative="1" as="geometry">
            <mxPoint x="590" y="380" as="sourcePoint" />
            <Array as="points">
              <mxPoint x="590" y="280" />
            </Array>
          </mxGeometry>
        </mxCell>
        <mxCell id="XKNB-wbBpSWoFpQIkqXU-35" value="DELAY&lt;br&gt;LOOP" style="text;html=1;strokeColor=none;fillColor=none;align=center;verticalAlign=middle;whiteSpace=wrap;rounded=0;" parent="1" vertex="1">
          <mxGeometry x="560" y="330" width="60" height="30" as="geometry" />
        </mxCell>
        <mxCell id="XKNB-wbBpSWoFpQIkqXU-40" style="edgeStyle=orthogonalEdgeStyle;rounded=0;orthogonalLoop=1;jettySize=auto;html=1;entryX=0.5;entryY=0;entryDx=0;entryDy=0;exitX=0.5;exitY=1;exitDx=0;exitDy=0;" parent="1" source="XKNB-wbBpSWoFpQIkqXU-10" target="XKNB-wbBpSWoFpQIkqXU-18" edge="1">
          <mxGeometry relative="1" as="geometry">
            <mxPoint x="239.9999999999999" y="529.9999999999999" as="sourcePoint" />
          </mxGeometry>
        </mxCell>
        <mxCell id="XKNB-wbBpSWoFpQIkqXU-59" style="edgeStyle=orthogonalEdgeStyle;rounded=0;orthogonalLoop=1;jettySize=auto;html=1;entryX=0.5;entryY=0;entryDx=0;entryDy=0;" parent="1" source="XKNB-wbBpSWoFpQIkqXU-41" target="XKNB-wbBpSWoFpQIkqXU-10" edge="1">
          <mxGeometry relative="1" as="geometry">
            <mxPoint x="100" y="280" as="targetPoint" />
            <Array as="points">
              <mxPoint x="120" y="725" />
              <mxPoint x="120" y="280" />
            </Array>
          </mxGeometry>
        </mxCell>
        <mxCell id="XKNB-wbBpSWoFpQIkqXU-41" value="CLEAR&lt;br&gt;ACTIVE&lt;br&gt;JOB&lt;br&gt;STATE" style="rounded=0;whiteSpace=wrap;html=1;fillColor=#385C22;fontStyle=0" parent="1" vertex="1">
          <mxGeometry x="180" y="690" width="120" height="70" as="geometry" />
        </mxCell>
        <mxCell id="XKNB-wbBpSWoFpQIkqXU-45" value="AFTER SEND" style="text;html=1;strokeColor=none;fillColor=none;align=center;verticalAlign=middle;whiteSpace=wrap;rounded=0;" parent="1" vertex="1">
          <mxGeometry x="240" y="655" width="60" height="30" as="geometry" />
        </mxCell>
        <mxCell id="XKNB-wbBpSWoFpQIkqXU-51" value="YES" style="text;html=1;strokeColor=none;fillColor=none;align=center;verticalAlign=middle;whiteSpace=wrap;rounded=0;" parent="1" vertex="1">
          <mxGeometry x="200" y="410" width="40" height="30" as="geometry" />
        </mxCell>
        <mxCell id="XKNB-wbBpSWoFpQIkqXU-56" value="NO" style="text;html=1;strokeColor=none;fillColor=none;align=center;verticalAlign=middle;whiteSpace=wrap;rounded=0;" parent="1" vertex="1">
          <mxGeometry x="530" y="410" width="40" height="20" as="geometry" />
        </mxCell>
        <mxCell id="XKNB-wbBpSWoFpQIkqXU-57" value="YES" style="text;html=1;strokeColor=none;fillColor=none;align=center;verticalAlign=middle;whiteSpace=wrap;rounded=0;" parent="1" vertex="1">
          <mxGeometry x="485" y="470" width="45" height="30" as="geometry" />
        </mxCell>
      </root>
    </mxGraphModel>
  </diagram>
</mxfile>
